<svg width="97" height="17" viewBox="0 0 97 17" fill="none" xmlns="http://www.w3.org/2000/svg">
<path d="M11.0414 11.8047C11.0414 13.1953 10.5687 14.2422 9.62344 14.9453C8.67812 15.6484 7.33437 16 5.59219 16H0.717186V0.707031H5.32265C5.96328 0.707031 6.59219 0.761719 7.20937 0.871094C7.82656 0.972656 8.37734 1.16797 8.86172 1.45703C9.3539 1.74609 9.75234 2.15234 10.057 2.67578C10.3617 3.19141 10.5141 3.86328 10.5141 4.69141C10.5141 5.46484 10.3148 6.17188 9.9164 6.8125C9.52578 7.45312 8.93203 7.91406 8.13515 8.19531C9.11172 8.5 9.83828 8.92578 10.3148 9.47266C10.7992 10.0195 11.0414 10.7969 11.0414 11.8047ZM8.11172 5.00781C8.11172 4.5625 8.02578 4.19922 7.8539 3.91797C7.68984 3.63672 7.475 3.42188 7.20937 3.27344C6.94375 3.11719 6.64687 3.01562 6.31875 2.96875C5.99062 2.92188 5.65859 2.89844 5.32265 2.89844H3.14297V7.11719H5.32265C5.65859 7.11719 5.99062 7.09375 6.31875 7.04688C6.64687 7 6.94375 6.90234 7.20937 6.75391C7.475 6.59766 7.68984 6.37891 7.8539 6.09766C8.02578 5.81641 8.11172 5.45312 8.11172 5.00781ZM8.63906 11.5586C8.63906 10.793 8.36953 10.2266 7.83047 9.85938C7.29922 9.49219 6.55312 9.30859 5.59219 9.30859H3.14297V13.8203H5.59219C6.55312 13.8203 7.29922 13.6367 7.83047 13.2695C8.36953 12.8945 8.63906 12.3242 8.63906 11.5586ZM20.032 16H12.6961V13.8203H15.0867V2.89844H12.6961V0.707031H17.5125V13.8203H20.032V16ZM28.4836 3.66016H25.5305V0.707031H28.4836V3.66016ZM30.7102 16H23.3742V13.8203H25.7883V7.26953H23.3742V5.07812H28.2141V13.8203H30.7102V16ZM42.5953 16H40.1695V9.26172C40.1695 8.41016 40.0094 7.82031 39.6891 7.49219C39.3687 7.16406 38.9039 7 38.2945 7C37.3961 7 36.6617 7.36328 36.0914 8.08984C35.5289 8.81641 35.2477 9.82031 35.2477 11.1016V16H32.8219V5.07812H35.2477V7.82031C35.4898 6.875 35.9391 6.14062 36.5953 5.61719C37.2516 5.08594 38.0602 4.82031 39.0211 4.82031C40.1383 4.82031 41.0133 5.18359 41.6461 5.91016C42.2789 6.63672 42.5953 7.75391 42.5953 9.26172V16ZM53.8477 16H50.707L47.0508 11.582L45.9492 12.707V16H43.5234V0.707031H45.9492V9.70703L50.3203 5.07812H53.6484L48.6094 10.0938L53.8477 16ZM64.1859 11.8047C64.1859 12.5078 64.0648 13.1367 63.8227 13.6914C63.5883 14.2383 63.2641 14.7031 62.85 15.0859C62.4437 15.4688 61.9555 15.7617 61.3852 15.9648C60.8227 16.168 60.2211 16.2695 59.5805 16.2695C58.8617 16.2695 58.2133 16.1406 57.6352 15.8828C57.057 15.625 56.5609 15.1992 56.1469 14.6055V16H53.9672V11.0078H56.1469C56.1469 11.5078 56.2328 11.9492 56.4047 12.332C56.5844 12.7148 56.8187 13.0391 57.1078 13.3047C57.3969 13.5625 57.7328 13.7617 58.1156 13.9023C58.4984 14.0352 58.9047 14.1016 59.3344 14.1016C60.0609 14.1016 60.6469 13.9336 61.0922 13.5977C61.5375 13.2617 61.7602 12.7266 61.7602 11.9922C61.7602 11.6094 61.6898 11.2812 61.5492 11.0078C61.4164 10.7344 61.2211 10.4922 60.9633 10.2812C60.7133 10.0625 60.4047 9.875 60.0375 9.71875C59.6703 9.55469 59.2523 9.38281 58.7836 9.20312C58.2289 9.01562 57.6742 8.80469 57.1195 8.57031C56.5648 8.33594 56.0687 8.04688 55.6312 7.70312C55.1937 7.35938 54.8383 6.9375 54.5648 6.4375C54.2914 5.92969 54.1547 5.29297 54.1547 4.52734C54.1547 3.85547 54.2758 3.26953 54.518 2.76953C54.768 2.26172 55.0961 1.83594 55.5023 1.49219C55.9164 1.14844 56.393 0.890625 56.932 0.71875C57.4789 0.539063 58.057 0.449219 58.6664 0.449219C59.3695 0.449219 59.9711 0.597656 60.4711 0.894531C60.9789 1.19141 61.3695 1.58594 61.643 2.07812V0.707031H63.8227V5.46484H61.643C61.643 4.56641 61.4047 3.86719 60.9281 3.36719C60.4594 2.85938 59.8266 2.60547 59.0297 2.60547C58.3266 2.60547 57.7406 2.76953 57.2719 3.09766C56.8109 3.42578 56.5805 3.88672 56.5805 4.48047C56.5805 4.78516 56.6391 5.04688 56.7562 5.26562C56.8812 5.47656 57.057 5.67188 57.2836 5.85156C57.518 6.02344 57.8109 6.1875 58.1625 6.34375C58.5141 6.49219 58.9203 6.65625 59.3812 6.83594C59.9594 7.03906 60.5336 7.26953 61.1039 7.52734C61.6742 7.78516 62.1859 8.10156 62.6391 8.47656C63.0922 8.85156 63.4633 9.30859 63.7523 9.84766C64.0414 10.3789 64.1859 11.0312 64.1859 11.8047ZM74.7 16H72.2742V9.26172C72.2742 8.41016 72.1141 7.82031 71.7937 7.49219C71.4734 7.16406 71.0086 7 70.3992 7C69.5008 7 68.7664 7.36328 68.1961 8.08984C67.6336 8.81641 67.3523 9.82031 67.3523 11.1016V16H64.9266V0.707031H67.3523V7.82031C67.5945 6.875 68.0437 6.14062 68.7 5.61719C69.3562 5.08594 70.1648 4.82031 71.1258 4.82031C72.243 4.82031 73.118 5.18359 73.7508 5.91016C74.3836 6.63672 74.7 7.75391 74.7 9.26172V16ZM86.257 10.5508C86.257 11.4023 86.1203 12.1758 85.8469 12.8711C85.5812 13.5664 85.1945 14.168 84.6867 14.6758C84.1867 15.1758 83.5852 15.5664 82.882 15.8477C82.1789 16.1289 81.3937 16.2695 80.5266 16.2695C79.675 16.2695 78.8977 16.1289 78.1945 15.8477C77.4914 15.5664 76.8859 15.1758 76.3781 14.6758C75.8781 14.168 75.4914 13.5664 75.218 12.8711C74.9523 12.1758 74.8195 11.4023 74.8195 10.5508C74.8195 9.72266 74.9523 8.95703 75.218 8.25391C75.4914 7.54297 75.8781 6.93359 76.3781 6.42578C76.8859 5.91016 77.4914 5.51562 78.1945 5.24219C78.8977 4.96094 79.675 4.82031 80.5266 4.82031C81.3937 4.82031 82.1789 4.96094 82.882 5.24219C83.5852 5.51562 84.1867 5.91016 84.6867 6.42578C85.1945 6.93359 85.5812 7.54297 85.8469 8.25391C86.1203 8.95703 86.257 9.72266 86.257 10.5508ZM83.843 10.5508C83.843 10.0586 83.7648 9.59375 83.6086 9.15625C83.4602 8.71094 83.2414 8.33203 82.9523 8.01953C82.6633 7.70703 82.3117 7.46094 81.8977 7.28125C81.4914 7.09375 81.0344 7 80.5266 7C80.0109 7 79.55 7.09375 79.1437 7.28125C78.7375 7.46094 78.3937 7.70703 78.1125 8.01953C77.8312 8.33203 77.6125 8.71094 77.4562 9.15625C77.3078 9.59375 77.2336 10.0586 77.2336 10.5508C77.2336 11.0664 77.3078 11.5352 77.4562 11.957C77.6125 12.3789 77.8312 12.75 78.1125 13.0703C78.3937 13.3906 78.7375 13.6406 79.1437 13.8203C79.55 13.9922 80.0109 14.0781 80.5266 14.0781C81.0344 14.0781 81.4914 13.9922 81.8977 13.8203C82.3117 13.6406 82.6633 13.3906 82.9523 13.0703C83.2414 12.75 83.4602 12.3789 83.6086 11.957C83.7648 11.5352 83.843 11.0664 83.843 10.5508ZM96.7945 12.5195C96.6695 13.668 96.2164 14.582 95.4352 15.2617C94.6617 15.9336 93.693 16.2695 92.5289 16.2695C91.8883 16.2695 91.3023 16.1641 90.7711 15.9531C90.2398 15.7422 89.7867 15.4492 89.4117 15.0742C89.0367 14.6992 88.7438 14.25 88.5328 13.7266C88.3297 13.1953 88.2281 12.6172 88.2281 11.9922V7.26953H85.7555V5.07812H88.2281V0.707031H90.6539V5.07812H95.2359V7.26953H90.6539V11.9922C90.6539 12.6953 90.8258 13.2188 91.1695 13.5625C91.5133 13.9062 91.9664 14.0781 92.5289 14.0781C93.2164 14.0781 93.7281 13.8789 94.0641 13.4805C94.4 13.082 94.5992 12.6016 94.6617 12.0391L96.7945 12.5195Z" fill="#F3F3F3"/>
</svg>
